<svg width="14" height="13" viewBox="0 0 14 13" fill="none" xmlns="http://www.w3.org/2000/svg">
<path d="M12.333 2.00001H11.6663V1.33334C11.6663 0.960005 11.373 0.666672 10.9997 0.666672C10.6263 0.666672 10.333 0.960005 10.333 1.33334V2.00001H7.66634V1.33334C7.66634 0.960005 7.37301 0.666672 6.99967 0.666672C6.62634 0.666672 6.33301 0.960005 6.33301 1.33334V2.00001H3.66634V1.33334C3.66634 0.960005 3.37301 0.666672 2.99967 0.666672C2.62634 0.666672 2.33301 0.960005 2.33301 1.33334V2.00001H1.66634C0.933008 2.00001 0.333008 2.6 0.333008 3.33334V11.3333C0.333008 12.0667 0.933008 12.6667 1.66634 12.6667H12.333C13.0663 12.6667 13.6663 12.0667 13.6663 11.3333V3.33334C13.6663 2.6 13.0663 2.00001 12.333 2.00001ZM3.99967 10.6667H3.33301C2.95967 10.6667 2.66634 10.3733 2.66634 10C2.66634 9.62667 2.95967 9.33334 3.33301 9.33334C3.33301 9.33334 3.78634 9.33334 3.99967 9.33334C4.37301 9.33334 4.66634 9.62667 4.66634 10C4.66634 10.3733 4.37301 10.6667 3.99967 10.6667ZM3.99967 8H3.33301C2.95967 8 2.66634 7.70667 2.66634 7.33334C2.66634 6.96 2.95967 6.66667 3.33301 6.66667C3.33301 6.66667 3.78634 6.66667 3.99967 6.66667C4.37301 6.66667 4.66634 6.96 4.66634 7.33334C4.66634 7.70667 4.37301 8 3.99967 8ZM7.33301 10.6667H6.66634C6.29301 10.6667 5.99967 10.3733 5.99967 10C5.99967 9.62667 6.29301 9.33334 6.66634 9.33334C6.66634 9.33334 7.11967 9.33334 7.33301 9.33334C7.70634 9.33334 7.99967 9.62667 7.99967 10C7.99967 10.3733 7.70634 10.6667 7.33301 10.6667ZM7.33301 8H6.66634C6.29301 8 5.99967 7.70667 5.99967 7.33334C5.99967 6.96 6.29301 6.66667 6.66634 6.66667C6.66634 6.66667 7.11967 6.66667 7.33301 6.66667C7.70634 6.66667 7.99967 6.96 7.99967 7.33334C7.99967 7.70667 7.70634 8 7.33301 8ZM10.6663 10.6667H9.99967C9.62634 10.6667 9.33301 10.3733 9.33301 10C9.33301 9.62667 9.62634 9.33334 9.99967 9.33334C9.99967 9.33334 10.453 9.33334 10.6663 9.33334C11.0397 9.33334 11.333 9.62667 11.333 10C11.333 10.3733 11.0397 10.6667 10.6663 10.6667ZM10.6663 8H9.99967C9.62634 8 9.33301 7.70667 9.33301 7.33334C9.33301 6.96 9.62634 6.66667 9.99967 6.66667C9.99967 6.66667 10.453 6.66667 10.6663 6.66667C11.0397 6.66667 11.333 6.96 11.333 7.33334C11.333 7.70667 11.0397 8 10.6663 8Z" fill="#EF3340"/>
</svg>
