<svg width="20" height="20" viewBox="0 0 20 20" fill="none" xmlns="http://www.w3.org/2000/svg">
<path d="M12.1039 3.28537L9.5 2L3 5.22302C3 5.22302 3 8.02398 3 10.0959C3 14.47 7.05045 16.9832 8.74777 17.8273C8.97923 17.9424 9.22997 18 9.5 18C9.75074 18 10.0015 17.9424 10.2522 17.8273C11.9496 16.964 16 14.47 16 10.0959C16 7.33333 16 5.22302 16 5.22302L12.1039 3.28537ZM9.5 16.3885V10.0767H4.63947V6.22062L9.51929 3.80336V10.0767H14.3991C14.3798 13.5492 10.9852 15.6403 9.5 16.3885Z" fill="white"/>
</svg>
