<svg width="13" height="16" viewBox="0 0 13 16" fill="none" xmlns="http://www.w3.org/2000/svg">
<path d="M9.10386 1.28537L6.5 0L0 3.22302C0 3.22302 0 6.02398 0 8.09592C0 12.47 4.05045 14.9832 5.74777 15.8273C5.97923 15.9424 6.22997 16 6.5 16C6.75074 16 7.00148 15.9424 7.25223 15.8273C8.94956 14.964 13 12.47 13 8.09592C13 5.33333 13 3.22302 13 3.22302L9.10386 1.28537ZM6.5 14.3885V8.07674H1.63947V4.22062L6.51929 1.80336V8.07674H11.3991C11.3798 11.5492 7.98516 13.6403 6.5 14.3885Z" fill="white"/>
</svg>
